<?xml version="1.0" encoding="utf-8"?>
<!-- Generator: Adobe Illustrator 25.4.1, SVG Export Plug-In . SVG Version: 6.00 Build 0)  -->
<svg version="1.1" id="Layer_1" xmlns="http://www.w3.org/2000/svg" xmlns:xlink="http://www.w3.org/1999/xlink" x="0px" y="0px"
	 viewBox="0 0 93.3 55.5" style="enable-background:new 0 0 93.3 55.5;" xml:space="preserve">
<style type="text/css">
	.st0{fill:#DF3E95;}
	.st1{fill:#3D261A;}
</style>
<path class="st0" d="M93,27.8"/>
<path class="st1" d="M46.8,0C20.4-0.1,0.3,27.8,0.3,27.8H0c0,0,20.1,27.9,46.5,27.8c0,0,33.1,1.5,46.5-27.8h0.3
	C80-1.4,46.8,0,46.8,0z M23.6,10.7C25.3,9.8,27.2,9,29,8.3s3.7-1.3,5.7-1.8c3.8-1,7.8-1.5,11.7-1.6c4,0,7.9,0.4,11.8,1.2
	c1.9,0.4,3.8,1,5.7,1.6s3.7,1.3,5.5,2c7.2,2.9,13.7,7.4,19,13.2c-6.1-4.4-12.9-7.9-20.1-10.2c-7-2.5-14.4-3.8-21.8-3.7
	c-3.7,0-7.4,0.5-11,1.3c-1.8,0.4-3.6,0.9-5.4,1.4c-1.7,0.6-3.5,1.2-5.2,1.9c-7,2.9-13.7,6.6-19.9,10.9
	C10.3,18.8,16.6,14.2,23.6,10.7z M66.4,29.3c-6.2,0.3-12.5,0.4-18.7,0.4S35.2,29.6,29,29.3s-12.5-0.7-18.7-1.5
	c6.2-0.8,12.5-1.3,18.7-1.6c6.2-0.3,12.5-0.4,18.7-0.4s12.5,0.1,18.7,0.4s12.5,0.7,18.7,1.6C78.8,28.6,72.6,29,66.4,29.3z
	 M85.1,31.1c-2.9,1.6-5.9,3-9,4.1c-3.1,1.1-6.3,2-9.5,2.8c-6.5,1.5-13,2.4-19.7,2.7c-3.4,0.1-6.7-0.1-10.1-0.5
	C33.5,39.7,30.2,39,27,38c-6.3-1.8-12.4-4.6-18-8.1c6.2,2.1,12.4,3.8,18.8,5.1c3.2,0.6,6.3,1.1,9.5,1.4c1.6,0.1,3.2,0.3,4.8,0.3
	c0.8,0,1.6,0.1,2.4,0.1l2.4-0.1c3.2-0.1,6.4-0.4,9.6-0.7s6.4-0.7,9.6-1.1c3.2-0.4,6.4-1,9.6-1.6C78.8,32.7,81.9,31.9,85.1,31.1z
	 M8.8,24.4c5.6-3.5,11.7-6.2,18.1-8.1c3.2-0.9,6.5-1.7,9.8-2.2s6.7-0.7,10.1-0.5c6.6,0.3,13.2,1.2,19.7,2.7c3.2,0.8,6.4,1.7,9.5,2.8
	c3.1,1.1,6.1,2.5,9,4.1c-3.2-0.8-6.3-1.6-9.5-2.2s-6.4-1.1-9.6-1.6c-3.2-0.5-6.4-0.8-9.6-1.1c-3.2-0.3-6.4-0.6-9.6-0.7l-2.4-0.1
	c-0.8,0-1.6,0-2.4,0.1c-1.6,0-3.2,0.2-4.7,0.3c-3.2,0.3-6.3,0.8-9.5,1.4C21.2,20.7,15,22.4,8.8,24.4z M69.6,44.6
	c-1.8,0.8-3.6,1.5-5.5,2c-1.9,0.6-3.8,1.1-5.7,1.6c-3.9,0.8-7.8,1.2-11.8,1.2c-4-0.1-7.9-0.6-11.8-1.6c-1.9-0.5-3.8-1.1-5.7-1.8
	c-1.8-0.7-3.6-1.5-5.4-2.4c-7-3.4-13.3-8.1-18.6-13.7c6.2,4.3,12.9,8,19.9,10.9c1.7,0.7,3.5,1.3,5.2,1.9c1.8,0.6,3.5,1,5.4,1.4
	c3.6,0.8,7.3,1.2,11,1.3c7.4,0,14.8-1.2,21.8-3.7c7.2-2.4,14-5.8,20.1-10.2C83.3,37.2,76.8,41.7,69.6,44.6z"/>
</svg>
