<?xml version="1.0" encoding="utf-8"?>
<!-- Generator: Adobe Illustrator 25.4.1, SVG Export Plug-In . SVG Version: 6.00 Build 0)  -->
<svg version="1.1" id="Capa_1" xmlns="http://www.w3.org/2000/svg" xmlns:xlink="http://www.w3.org/1999/xlink" x="0px" y="0px"
	 viewBox="0 0 512 512" style="enable-background:new 0 0 512 512;" xml:space="preserve">
<style type="text/css">
	.st0{fill:#53341B;}
</style>
<g>
	<g>
		<path class="st0" d="M501.8,236.3c-32.9-11.8-53.2-45.3-50.6-71.8c0-4.4-2.6-8.4-5.9-11.2c-3.3-2.8-8.4-4.1-12.7-3.4
			c-50.2,7.4-96.1-29.4-100.7-81c-0.4-4.7-3-8.8-6.9-11.4c-3.9-2.5-8.8-3-13.2-1.4C271.1,71,232.6,44.1,217.3,9
			c-2.9-6.6-10-10.2-17-8.6C84.8,26.1,0,137.7,0,256c0,140.6,115.4,256,256,256s256-115.4,256-256
			C511.6,247.1,511.5,239.8,501.8,236.3z M105.3,272.1c-8.3,0-15-6.7-15-15c0-8.3,6.7-15,15-15s15,6.7,15,15
			C120.3,265.4,113.5,272.1,105.3,272.1z M166,391c-24.8,0-45-20.2-45-45s20.2-45,45-45s45,20.2,45,45S190.8,391,166,391z M181,211
			c-16.5,0-30-13.5-30-30s13.5-30,30-30s30,13.5,30,30S197.5,211,181,211z M301,421c-16.5,0-30-13.5-30-30s13.5-30,30-30
			s30,13.5,30,30S317.5,421,301,421z M316,301c-24.8,0-45-20.2-45-45s20.2-45,45-45s45,20.2,45,45S340.8,301,316,301z M405.3,332.1
			c-8.3,0-15-6.7-15-15c0-8.3,6.7-15,15-15s15,6.7,15,15C420.3,325.4,413.5,332.1,405.3,332.1z"/>
	</g>
</g>
</svg>
