<?xml version="1.0" encoding="utf-8"?>
<!-- Generator: Adobe Illustrator 25.4.1, SVG Export Plug-In . SVG Version: 6.00 Build 0)  -->
<svg version="1.1" id="Layer_1" xmlns="http://www.w3.org/2000/svg" xmlns:xlink="http://www.w3.org/1999/xlink" x="0px" y="0px"
	 viewBox="0 0 448 448" style="enable-background:new 0 0 448 448;" xml:space="preserve">
<style type="text/css">
	.st0{fill:#53341B;}
</style>
<path class="st0" d="M239.6,16c0,8.8-7.2,16-16,16c-8.8,0-16-7.2-16-16s7.2-16,16-16C232.4,0,239.6,7.2,239.6,16z"/>
<path class="st0" d="M223.6,48C116.3,48.1,28.2,132.8,23.8,240h399.7C419,132.8,330.9,48.1,223.6,48z"/>
<path class="st0" d="M383.6,296c-16.1,0-31.1-8.1-40-21.5c-8.9,13.4-23.9,21.5-40,21.5c-16.1,0-31.1-8.1-40-21.5
	c-8.9,13.4-23.9,21.5-40,21.5c-16.1,0-31.1-8.1-40-21.5c-8.9,13.4-23.9,21.5-40,21.5c-16.1,0-31.1-8.1-40-21.5
	c-10.2,15.4-28.2,23.5-46.4,21.1c-18.2-2.5-33.5-15.2-39.2-32.7l27.4,178.4c0.6,3.9,4,6.8,7.9,6.8h340.5c3.9,0,7.3-2.9,7.9-6.8
	l27.4-178.4C422.8,282.6,404.4,296,383.6,296z"/>
<path class="st0" d="M383.6,280c14.6,0,27.3-9.9,31-24h-62C356.3,270.1,369,280,383.6,280z"/>
<path class="st0" d="M63.6,280c14.6,0,27.3-9.9,31-24h-62C36.3,270.1,49,280,63.6,280z"/>
<path class="st0" d="M143.6,280c14.6,0,27.3-9.9,31-24h-62C116.3,270.1,129,280,143.6,280z"/>
<path class="st0" d="M303.6,280c14.6,0,27.3-9.9,31-24h-62C276.3,270.1,289,280,303.6,280z"/>
<path class="st0" d="M223.6,280c14.6,0,27.3-9.9,31-24h-62C196.3,270.1,209,280,223.6,280z"/>
</svg>
